<svg width="535" height="404" viewBox="0 0 535 404" fill="none" xmlns="http://www.w3.org/2000/svg">
<path d="M335.559 278.716H291.563V1.81746e-05H335.559V115.536L491.329 115.536V0L534.688 1.81746e-05V278.716L491.329 278.716V163.18L335.559 163.18V278.716Z" fill="#F05025"/>
<path d="M1 278.716H43.3104V114.345L1 68.9503V278.716Z" fill="#F05025"/>
<path d="M1 50.3545V0H3.80931L132.632 123.874L259.105 0H261.914V278.716H214.903V102.434L132.632 181.046H128.419L43.3104 97.6697L1 50.3545Z" fill="#F05025"/>
<path d="M44.3971 318.124L44.0522 318.519L44.502 318.789L69.544 333.814L43.2755 349.524L42.5797 349.94L43.3084 350.295C44.456 350.855 45.2451 352.032 45.2451 353.393C45.2451 353.437 45.2442 353.482 45.2425 353.526L45.2117 354.336L45.9071 353.919L72.0824 338.214V368.636V369.324L72.7065 369.034C73.1467 368.829 73.6376 368.715 74.1565 368.715C74.9135 368.715 75.6123 368.958 76.1804 369.372L76.8777 369.879V369.017V337.121V336.259L76.1804 336.766C75.6123 337.179 74.9135 337.423 74.1565 337.423C73.6376 337.423 73.1467 337.309 72.7065 337.104L72.6801 337.092L72.6542 337.079C71.5042 336.521 70.7129 335.342 70.7129 333.98C70.7129 333.952 70.7133 333.926 70.7139 333.899L70.7154 333.834L70.7192 333.771C70.7952 332.498 71.5633 331.41 72.6543 330.88L73.3836 330.526L72.6884 330.109L45.5343 313.816L44.2858 313.067L44.9121 314.381C45.1255 314.829 45.2451 315.33 45.2451 315.861C45.2451 316.727 44.9255 317.518 44.3971 318.124ZM72.6524 376.015L73.3506 375.604L72.6253 375.244C71.5406 374.704 70.7817 373.61 70.7174 372.335L70.6809 371.611L70.0564 371.979L44.5224 386.999V356.534V355.672L43.8251 356.179C43.2571 356.592 42.5584 356.836 41.8015 356.836C41.0445 356.836 40.3457 356.592 39.7777 356.179L39.0804 355.672V356.534V386.999L12.9003 371.599L12.202 371.188L12.2392 371.997C12.2416 372.051 12.2429 372.104 12.2429 372.158C12.2429 373.389 11.5974 374.47 10.6244 375.079L10.0116 375.463L10.6348 375.829L37.7013 391.751L38.3258 392.118L38.3623 391.395C38.4541 389.575 39.9589 388.128 41.8015 388.128C43.644 388.128 45.1488 389.575 45.2406 391.395L45.2771 392.118L45.9016 391.751L72.6524 376.015ZM10.8231 369.372L11.5204 369.879V369.017V338.172L37.7013 353.572L38.3258 353.939L38.3623 353.216C38.4266 351.94 39.1854 350.847 40.2701 350.307L40.9954 349.946L40.2972 349.536L13.8517 333.98L39.3026 319.008L39.796 318.718L39.3878 318.317C38.7516 317.692 38.3579 316.823 38.3579 315.861C38.3579 315.487 38.4172 315.128 38.5267 314.792L38.8861 313.69L37.8868 314.278L10.6349 330.308L10.0116 330.675L10.6244 331.059C11.5784 331.656 12.2176 332.707 12.2422 333.908L12.12 333.98L12.2422 334.051C12.2195 335.16 11.6733 336.139 10.8407 336.753L10.6424 336.636V336.889C10.1095 337.227 9.47727 337.423 8.79931 337.423C8.28038 337.423 7.7894 337.309 7.34922 337.104L6.72513 336.814V337.502V368.636V369.324L7.34922 369.034C7.78938 368.829 8.28035 368.715 8.79926 368.715C9.55625 368.715 10.255 368.958 10.8231 369.372Z" fill="#F05025" stroke="#F05025" stroke-width="0.877984"/>
<path d="M41.8021 324.1C46.3523 324.1 50.0409 320.411 50.0409 315.861C50.0409 311.31 46.3523 307.622 41.8021 307.622C37.2519 307.622 33.5632 311.31 33.5632 315.861C33.5632 320.411 37.2519 324.1 41.8021 324.1ZM45.2457 315.861C45.2457 317.762 43.7039 319.304 41.8021 319.304C39.9002 319.304 38.3585 317.762 38.3585 315.861C38.3585 313.959 39.9002 312.417 41.8021 312.417C43.7039 312.417 45.2457 313.959 45.2457 315.861ZM8.79986 342.218C13.3501 342.218 17.0387 338.53 17.0387 333.979C17.0387 329.429 13.3501 325.741 8.79986 325.741C4.24967 325.741 0.561008 329.429 0.561008 333.979C0.561008 338.53 4.24967 342.218 8.79986 342.218ZM12.2435 333.979C12.2435 335.881 10.7017 337.423 8.79986 337.423C6.89801 337.423 5.35626 335.881 5.35626 333.979C5.35626 332.078 6.89801 330.536 8.79986 330.536C10.7017 330.536 12.2435 332.078 12.2435 333.979ZM74.1572 342.218C78.7073 342.218 82.396 338.53 82.396 333.979C82.396 329.429 78.7073 325.741 74.1572 325.741C69.607 325.741 65.9183 329.429 65.9183 333.979C65.9183 338.53 69.607 342.218 74.1572 342.218ZM77.6007 333.979C77.6007 335.881 76.059 337.423 74.1572 337.423C72.2553 337.423 70.7135 335.881 70.7135 333.979C70.7135 332.078 72.2553 330.536 74.1572 330.536C76.059 330.536 77.6007 332.078 77.6007 333.979ZM41.8021 361.631C46.3523 361.631 50.0409 357.943 50.0409 353.392C50.0409 348.842 46.3523 345.154 41.8021 345.154C37.2519 345.154 33.5632 348.842 33.5632 353.392C33.5632 357.943 37.2519 361.631 41.8021 361.631ZM45.2457 353.392C45.2457 355.294 43.7039 356.836 41.8021 356.836C39.9002 356.836 38.3585 355.294 38.3585 353.392C38.3585 351.491 39.9002 349.949 41.8021 349.949C43.7039 349.949 45.2457 351.491 45.2457 353.392ZM8.79986 380.397C13.3501 380.397 17.0387 376.708 17.0387 372.158C17.0387 367.608 13.3501 363.919 8.79986 363.919C4.24967 363.919 0.561008 367.608 0.561008 372.158C0.561008 376.708 4.24967 380.397 8.79986 380.397ZM12.2435 372.158C12.2435 374.06 10.7017 375.602 8.79986 375.602C6.89801 375.602 5.35626 374.06 5.35626 372.158C5.35626 370.256 6.89801 368.715 8.79986 368.715C10.7017 368.715 12.2435 370.256 12.2435 372.158ZM41.8021 399.81C46.3523 399.81 50.0409 396.121 50.0409 391.571C50.0409 387.021 46.3523 383.332 41.8021 383.332C37.2519 383.332 33.5632 387.021 33.5632 391.571C33.5632 396.121 37.2519 399.81 41.8021 399.81ZM45.2457 391.571C45.2457 393.473 43.7039 395.015 41.8021 395.015C39.9002 395.015 38.3585 393.473 38.3585 391.571C38.3585 389.669 39.9002 388.128 41.8021 388.128C43.7039 388.128 45.2457 389.669 45.2457 391.571ZM74.1572 380.397C78.7073 380.397 82.396 376.708 82.396 372.158C82.396 367.608 78.7073 363.919 74.1572 363.919C69.607 363.919 65.9183 367.608 65.9183 372.158C65.9183 376.708 69.607 380.397 74.1572 380.397ZM77.6007 372.158C77.6007 374.06 76.059 375.602 74.1572 375.602C72.2553 375.602 70.7135 374.06 70.7135 372.158C70.7135 370.256 72.2553 368.715 74.1572 368.715C76.059 368.715 77.6007 370.256 77.6007 372.158Z" fill="#F05025" stroke="#F05025" stroke-width="0.877984"/>
<path d="M150.197 327.716C154.09 327.716 157.504 328.462 160.437 329.956C163.424 331.396 165.904 333.422 167.877 336.036C169.85 338.649 171.317 341.662 172.277 345.076C173.29 348.436 173.797 351.982 173.797 355.716C173.797 360.836 172.917 365.529 171.157 369.796C169.397 374.009 166.784 377.396 163.317 379.956C159.85 382.462 155.477 383.716 150.197 383.716H130.197C129.29 383.716 128.517 383.396 127.877 382.756C127.29 382.116 126.997 381.342 126.997 380.436V330.916C126.997 330.009 127.29 329.262 127.877 328.676C128.517 328.036 129.29 327.716 130.197 327.716H150.197ZM149.397 377.476C153.504 377.476 156.837 376.489 159.397 374.516C162.01 372.542 163.904 369.902 165.077 366.596C166.304 363.289 166.917 359.662 166.917 355.716C166.917 352.836 166.57 350.089 165.877 347.476C165.237 344.809 164.197 342.462 162.757 340.436C161.37 338.409 159.557 336.809 157.317 335.636C155.13 334.462 152.49 333.876 149.397 333.876H132.997L133.637 333.236V378.276L133.157 377.476H149.397ZM211.059 380.436C211.059 381.342 210.712 382.116 210.019 382.756C209.379 383.396 208.606 383.716 207.699 383.716C206.686 383.716 205.886 383.396 205.299 382.756C204.712 382.116 204.419 381.342 204.419 380.436V330.996C204.419 330.036 204.739 329.262 205.379 328.676C206.019 328.036 206.819 327.716 207.779 327.716C208.686 327.716 209.459 328.036 210.099 328.676C210.739 329.262 211.059 330.036 211.059 330.996V380.436ZM270.642 384.516C266.535 384.516 262.722 383.796 259.202 382.356C255.735 380.862 252.669 378.809 250.002 376.196C247.389 373.582 245.335 370.542 243.842 367.076C242.402 363.556 241.682 359.769 241.682 355.716C241.682 351.609 242.402 347.822 243.842 344.356C245.335 340.836 247.389 337.769 250.002 335.156C252.669 332.542 255.735 330.516 259.202 329.076C262.722 327.636 266.535 326.916 270.642 326.916C273.362 326.916 275.975 327.236 278.482 327.876C281.042 328.462 283.362 329.396 285.442 330.676C285.975 330.942 286.349 331.316 286.562 331.796C286.829 332.276 286.962 332.782 286.962 333.316C286.962 334.222 286.642 334.996 286.002 335.636C285.415 336.276 284.722 336.596 283.922 336.596C283.602 336.596 283.282 336.542 282.962 336.436C282.695 336.329 282.402 336.222 282.082 336.116C280.429 335.262 278.642 334.596 276.722 334.116C274.802 333.582 272.775 333.316 270.642 333.316C266.429 333.316 262.642 334.302 259.282 336.276C255.975 338.249 253.362 340.916 251.442 344.276C249.522 347.636 248.562 351.449 248.562 355.716C248.562 359.929 249.522 363.742 251.442 367.156C253.362 370.516 255.975 373.182 259.282 375.156C262.642 377.129 266.429 378.116 270.642 378.116C272.775 378.116 274.962 377.822 277.202 377.236C279.495 376.649 281.442 375.902 283.042 374.996L282.482 376.916V360.036L283.762 361.156H271.522C270.615 361.156 269.842 360.862 269.202 360.276C268.615 359.636 268.322 358.862 268.322 357.956C268.322 357.049 268.615 356.302 269.202 355.716C269.842 355.076 270.615 354.756 271.522 354.756H286.082C287.042 354.756 287.815 355.076 288.402 355.716C288.989 356.356 289.282 357.129 289.282 358.036V376.516C289.282 377.156 289.122 377.716 288.802 378.196C288.535 378.676 288.162 379.076 287.682 379.396C285.282 380.942 282.615 382.196 279.682 383.156C276.802 384.062 273.789 384.516 270.642 384.516ZM327.387 380.436C327.387 381.342 327.04 382.116 326.347 382.756C325.707 383.396 324.934 383.716 324.027 383.716C323.014 383.716 322.214 383.396 321.627 382.756C321.04 382.116 320.747 381.342 320.747 380.436V330.996C320.747 330.036 321.067 329.262 321.707 328.676C322.347 328.036 323.147 327.716 324.107 327.716C325.014 327.716 325.787 328.036 326.427 328.676C327.067 329.262 327.387 330.036 327.387 330.996V380.436ZM378.81 383.716C377.85 383.716 377.05 383.396 376.41 382.756C375.77 382.116 375.45 381.342 375.45 380.436V330.996H382.25V380.436C382.25 381.342 381.93 382.116 381.29 382.756C380.65 383.396 379.823 383.716 378.81 383.716ZM360.25 333.796C359.343 333.796 358.57 333.529 357.93 332.996C357.343 332.409 357.05 331.662 357.05 330.756C357.05 329.849 357.343 329.129 357.93 328.596C358.57 328.009 359.343 327.716 360.25 327.716H397.45C398.357 327.716 399.13 328.009 399.77 328.596C400.41 329.129 400.73 329.849 400.73 330.756C400.73 331.716 400.41 332.462 399.77 332.996C399.13 333.529 398.357 333.796 397.45 333.796H360.25ZM445.732 336.036L426.932 381.796C426.719 382.436 426.345 382.942 425.812 383.316C425.279 383.689 424.719 383.876 424.132 383.876C423.119 383.876 422.372 383.609 421.892 383.076C421.412 382.542 421.172 381.902 421.172 381.156C421.119 380.782 421.172 380.382 421.332 379.956L442.052 329.556C442.319 328.809 442.719 328.276 443.252 327.956C443.839 327.582 444.479 327.422 445.172 327.476C445.865 327.476 446.479 327.662 447.012 328.036C447.599 328.409 447.999 328.916 448.212 329.556L468.852 379.476C469.012 379.902 469.092 380.329 469.092 380.756C469.092 381.716 468.772 382.489 468.132 383.076C467.492 383.609 466.772 383.876 465.972 383.876C465.332 383.876 464.745 383.689 464.212 383.316C463.679 382.942 463.279 382.409 463.012 381.716L443.972 335.956L445.732 336.036ZM430.932 368.756L433.652 362.516H457.412L458.612 368.756H430.932ZM528.736 377.396C529.643 377.396 530.416 377.716 531.056 378.356C531.696 378.942 532.016 379.689 532.016 380.596C532.016 381.502 531.696 382.249 531.056 382.836C530.416 383.422 529.643 383.716 528.736 383.716H501.056C500.15 383.716 499.376 383.396 498.736 382.756C498.15 382.116 497.856 381.342 497.856 380.436V330.916C497.856 330.009 498.176 329.262 498.816 328.676C499.456 328.036 500.256 327.716 501.216 327.716C502.123 327.716 502.896 328.036 503.536 328.676C504.176 329.262 504.496 330.009 504.496 330.916V378.836L502.896 377.396H528.736Z" fill="#393939"/>
</svg>
